<svg width="41" height="32" viewBox="0 0 41 32" fill="none" xmlns="http://www.w3.org/2000/svg">
<path d="M40.9053 12.5077C40.9053 12.5715 40.9264 12.6193 40.9684 12.6512C41.0105 12.6831 41.0105 12.731 40.9684 12.7948V13.7515C40.9684 14.0705 40.8211 14.3416 40.5266 14.5648C40.232 14.7881 39.8743 14.8997 39.4534 14.8997H36.5497V30.3997C36.5497 30.7186 36.4234 30.9738 36.1709 31.1651C35.9184 31.3565 35.5607 31.4681 35.0978 31.5H5.87067C5.44983 31.5 5.09212 31.3884 4.79754 31.1651C4.50295 30.9419 4.35566 30.6867 4.35566 30.3997V14.8997H1.45189C1.03105 14.8997 0.69438 14.7881 0.441878 14.5648C0.189376 14.3416 0.0420837 14.0705 0 13.7515V12.7948C0 12.6672 0.0210418 12.5715 0.0631255 12.5077L3.78753 2.12654C3.99795 1.61626 4.35566 1.21759 4.86066 0.930556C5.36567 0.643519 5.95484 0.5 6.62818 0.5H34.3403C35.0136 0.5 35.6028 0.643519 36.1078 0.930556C36.6128 1.21759 36.9495 1.61626 37.1178 2.12654L40.9053 12.5077ZM32.194 14.8997H8.77444V20.9753C8.77444 21.1348 8.85861 21.2623 9.02694 21.358C9.19528 21.4537 9.36361 21.5175 9.53195 21.5494H31.4365C31.6469 21.5494 31.8363 21.4856 32.0046 21.358C32.173 21.2305 32.2361 21.1029 32.194 20.9753V14.8997Z" fill="black"/>
</svg>
